<?xml version="1.0" standalone="no"?>
<!DOCTYPE svg PUBLIC "-//W3C//DTD SVG 20010904//EN" "http://www.w3.org/TR/2001/REC-SVG-20010904/DTD/svg10.dtd">
<svg width="815.2448534965515mm" height="721.3116144994274mm"  viewBox="0 0 815.2448534965515 721.3116144994274" xmlns="http://www.w3.org/2000/svg">
    <title>Bezier Curve : BezierCurve</title>
    <desc>This is an exported Bezier xml_path from Blender, using the ExportScript by maybites.ch and Craxic</desc>
<path style="fill:none;stroke:#000000;stroke-width:1px;stroke-linecap:butt;stroke-linejoin:miter;stroke-opacity:1" d="M152.30596441030502,1.0478722769767046 C152.30596441030502,-118.63944710697979 152.30596441030502,-238.32675100769848 152.30596441030502,-358.01406980957836 C101.35144370794296,-358.01406980957836 50.39686340093613,-358.01406980957836 -0.5576573014259338,-358.01406980957836 C-0.5576573014259338,-478.76396061386913 -0.5576573014259338,-599.5138514181599 -0.5576573014259338,-720.2637422224507 C191.68979305028915,-720.2637422224507 383.93724340200424,-720.2637422224507 576.1846937537193,-720.2637422224507 C655.6854881644249,-701.4726627012715 735.18640178442,-682.6815235754475 814.6871961951256,-663.8904440542683 C814.6871961951256,-655.7345616957173 814.6871961951256,-647.578738941811 814.6871961951256,-639.42285658326 C757.8052915930748,-620.8107698103413 770.5618776679039,-602.1986830374226 762.6151480078697,-583.5865962645039 C754.6684183478355,-554.3091523787007 742.9575361609459,-552.636169209145 727.4822630286217,-552.2179234167561 C727.4822630286217,-546.7806685110554 727.4822630286217,-541.3434732099995 727.4822630286217,-535.9062183042988 C711.1704983115196,-535.2788794180378 706.7789472937584,-529.0051329275593 706.7789472937584,-522.7313864370808 C706.7789472937584,-500.77267767395824 706.7789472937584,-478.81399871315807 706.7789472937584,-456.8552899500355 C700.9232677817345,-456.8552899500355 695.0677074790001,-456.8552899500355 689.2120279669762,-456.8552899500355 C681.0446419119835,-456.8552899500355 680.428568303585,-472.54007340874523 647.8042044043541,-472.54007340874523 C611.4042438864708,-472.54007340874523 618.9442314505577,-452.46356011833996 604.5141853690147,-442.4253034731373 C599.0768112540245,-442.4253034731373 593.6394371390343,-442.4253034731373 588.202063024044,-442.4253034731373 C582.7646889090538,-435.94225527253 577.3273147940636,-429.4592070719227 571.8899406790733,-422.9761588713154 C571.8899406790733,-415.86571217980236 571.8899406790733,-408.7552952906117 571.8899406790733,-401.6448485990986 C552.6499189734459,-401.6448485990986 533.4098972678185,-401.6448485990986 514.169875562191,-401.6448485990986 C514.169875562191,-387.0057094236836 514.169875562191,-372.36660005059093 514.169875562191,-357.7274608751759 C510.19639152288437,-357.7274608751759 506.2229074835777,-357.7274608751759 502.2494234442711,-357.7274608751759 C501.9008554816246,-335.7683944841847 473.842088162899,-338.9054167410359 474.539224088192,-321.65186883416027 C474.539224088192,-293.9454841753468 473.6357368826866,-273.46687795128673 444.7247423529625,-273.7680304190144 C444.7247423529625,-207.81480552162975 444.7247423529625,-141.8615955254063 444.7247423529625,-75.90837807860225 C439.90624326467514,-75.90837807860225 435.087684571743,-75.90837807860225 430.26918548345566,-75.90837807860225 C430.4649867415428,-50.31074614729732 430.6607283949852,-24.71311980392784 430.85652965307236,0.8845102647319436 C338.00632137060165,0.9389642700261902 245.15617269277573,0.9934182680444792 152.30596441030502,1.0478722769767046 Z "/>
</svg>