<?xml version="1.0" standalone="no"?>
<!DOCTYPE svg PUBLIC "-//W3C//DTD SVG 20010904//EN" "http://www.w3.org/TR/2001/REC-SVG-20010904/DTD/svg10.dtd">
<svg width="347.05448150634766mm" height="3631.5709352493286mm"  viewBox="0 0 347.05448150634766 3631.5709352493286" xmlns="http://www.w3.org/2000/svg">
    <title>Bezier Curve : BezierCurve</title>
    <desc>This is an exported Bezier xml_path from Blender, using the ExportScript by maybites.ch and Craxic</desc>
<path style="fill:none;stroke:#000000;stroke-width:1px;stroke-linecap:butt;stroke-linejoin:miter;stroke-opacity:1" d="M-1.0,3.6330579882437632 C21.279024124145508,3.6465984993774327 265.52514934539795,3.6044037341489457 312.98797035217285,3.6332390308380127 C335.26699447631836,3.6467743037937908 347.099946975708,-8.853278398513794 346.05448150634766,-31.68304944038391 C345.50516510009766,-43.678603410720825 333.17797088623047,-57.51933836936951 318.0879821777344,-57.577929735183716 C318.0879821777344,-62.75691771507263 318.0879821777344,-67.93590569496155 318.0879821777344,-73.11489367485046 C302.1318187713623,-75.31174206733704 270.1796760559082,-71.8682029247284 270.21949195861816,-97.39609742164612 C270.24738693237305,-115.28762364387512 291.57023334503174,-115.12073063850403 291.60993003845215,-143.6455466747284 C291.63484477996826,-161.53701329231262 278.0426015853882,-171.65937209129333 265.94202423095703,-171.74138808250427 C265.94202423095703,-183.07223105430603 265.9421434402466,-194.4030740261078 265.9421434402466,-205.73391699790955 C258.9494457244873,-205.73391699790955 251.95686721801758,-205.73391699790955 244.9641695022583,-205.73391699790955 C251.79033184051514,-220.05220437049866 236.6396656036377,-225.04693949222565 232.47735404968262,-234.7034432888031 C232.47735404968262,-241.89581656455994 232.47735404968262,-249.08818984031677 232.47735404968262,-256.2805631160736 C218.80726718902588,-1367.9098107814789 220.5273380279541,-2479.539058446884 191.46721267700195,-3591.1680676937103 C197.68087768554688,-3600.1433351039886 212.45746517181396,-3604.14471411705 210.10808849334717,-3618.093631505966 C208.06519889831543,-3630.222938299179 193.81658935546875,-3627.96439909935 147.9720344543457,-3627.4143674373627 "/>
</svg>